<?xml version="1.0" standalone="no"?>
<!DOCTYPE svg PUBLIC "-//W3C//DTD SVG 20010904//EN"
 "http://www.w3.org/TR/2001/REC-SVG-20010904/DTD/svg10.dtd">
<svg version="1.0" xmlns="http://www.w3.org/2000/svg"
 width="993.000000pt" height="926.000000pt" viewBox="0 0 993.000000 926.000000"
 preserveAspectRatio="xMidYMid meet">

<g transform="translate(0.000000,926.000000) scale(0.100000,-0.100000)"
fill="#000000" stroke="none">
<path d="M0 4630 l0 -4630 4965 0 4965 0 0 4630 0 4630 -4965 0 -4965 0 0
-4630z m5838 4030 c15 -22 46 -66 70 -97 40 -53 42 -61 36 -98 -5 -22 -8 -80
-8 -130 0 -85 3 -98 58 -245 152 -405 162 -445 153 -614 -11 -216 -94 -384
-278 -562 -170 -164 -364 -264 -600 -309 -266 -50 -534 38 -864 285 -196 147
-257 162 -367 91 -37 -23 -79 -57 -94 -74 -24 -28 -26 -37 -21 -92 2 -35 26
-123 56 -210 62 -180 82 -304 82 -500 0 -356 -107 -559 -419 -791 -105 -78
-275 -164 -397 -201 -78 -23 -107 -27 -225 -27 -125 -1 -139 1 -192 26 -115
54 -394 246 -558 386 -91 78 -120 93 -236 125 -143 39 -156 49 -237 171 -45
67 -46 70 -29 92 32 42 419 449 487 513 89 83 203 174 288 228 183 117 493
277 712 368 296 122 426 193 620 337 45 35 243 224 455 438 206 207 412 406
457 441 163 128 484 299 733 389 80 29 165 63 190 76 68 35 95 32 128 -16z
m638 -2215 c318 -44 534 -120 749 -263 364 -242 549 -574 587 -1049 13 -167 2
-371 -28 -513 -38 -181 -117 -376 -206 -509 -76 -112 -272 -304 -393 -384 -93
-61 -246 -137 -337 -166 -21 -7 -38 -17 -38 -22 0 -7 696 -851 772 -935 l19
-21 -68 -18 c-343 -89 -611 -403 -641 -752 l-7 -84 -665 860 -665 860 -3 -404
-2 -405 -565 0 -565 0 0 1910 0 1910 973 0 c815 0 991 -2 1083 -15z m-1381
-3965 l855 0 0 -495 0 -495 -1425 0 -1425 0 2 1746 3 1746 92 24 c388 100 732
382 917 753 43 85 112 271 118 317 2 11 4 -794 5 -1788 l3 -1808 855 0z m2790
-411 c79 -29 164 -111 200 -191 25 -53 29 -76 29 -148 0 -114 -32 -188 -115
-264 -82 -77 -146 -99 -264 -94 -146 7 -245 70 -307 196 -30 61 -33 74 -33
162 0 81 4 103 26 150 45 96 122 165 219 196 61 20 182 17 245 -7z m-4585
-1259 l0 -200 105 0 105 0 0 -50 0 -50 -165 0 -165 0 0 250 0 250 60 0 60 0 0
-200z m530 155 c0 -38 -3 -45 -20 -45 -19 0 -20 -7 -20 -160 0 -153 1 -160 20
-160 17 0 20 -7 20 -45 l0 -45 -100 0 -100 0 0 45 c0 38 3 45 20 45 19 0 20 7
20 160 0 153 -1 160 -20 160 -17 0 -20 7 -20 45 l0 45 100 0 100 0 0 -45z
m270 -52 l0 -98 98 98 97 97 70 0 70 0 -114 -114 -113 -114 93 -103 c51 -57
106 -119 123 -136 l30 -33 -71 0 -71 0 -87 100 c-84 96 -88 100 -106 84 -16
-14 -19 -32 -19 -101 l0 -83 -60 0 -60 0 0 250 0 250 60 0 60 0 0 -97z m810
47 l0 -50 -105 0 -105 0 0 -40 0 -40 90 0 90 0 0 -50 0 -50 -90 0 -90 0 0 -60
0 -60 105 0 105 0 0 -50 0 -50 -165 0 -165 0 0 250 0 250 165 0 165 0 0 -50z
m1388 36 c50 -26 75 -62 80 -116 5 -60 -10 -101 -50 -135 -34 -29 -37 -21 59
-142 l73 -93 -67 0 -68 0 -75 98 c-49 62 -84 98 -98 100 -21 3 -22 1 -22 -97
l0 -101 -60 0 -60 0 0 250 0 250 130 0 c93 0 139 -4 158 -14z m622 -36 l0 -50
-105 0 -105 0 0 -40 0 -40 95 0 95 0 0 -50 0 -50 -95 0 -95 0 0 -60 0 -60 105
0 105 0 0 -50 0 -50 -160 0 -160 0 0 250 0 250 160 0 160 0 0 -50z m577 -200
c56 -135 103 -246 103 -247 0 -2 -27 -3 -60 -3 l-60 0 -25 55 -24 55 -103 0
-103 0 -20 -52 -21 -53 -63 -3 c-49 -2 -62 0 -58 10 21 53 191 457 199 471 8
15 20 17 70 15 l61 -3 104 -245z m353 50 l0 -200 105 0 105 0 0 -50 0 -50
-160 0 -160 0 0 250 0 250 55 0 55 0 0 -200z m-2280 -105 l0 -35 -110 0 -110
0 0 35 0 35 110 0 110 0 0 -35z"/>
<path d="M5385 8399 c-154 -36 -501 -220 -713 -379 -108 -80 -239 -211 -321
-320 -227 -302 -204 -512 81 -728 165 -125 361 -228 513 -270 92 -26 315 -22
420 7 181 49 353 158 515 328 100 103 149 183 176 287 18 68 18 219 -1 299
-59 257 -231 600 -353 707 -80 71 -198 96 -317 69z"/>
<path d="M3305 6926 c-134 -36 -228 -72 -345 -132 -177 -92 -408 -271 -600
-464 -295 -299 -279 -476 72 -816 123 -119 260 -226 350 -274 74 -40 194 -70
278 -70 239 0 599 212 757 445 151 223 184 435 119 757 -65 321 -151 480 -296
547 -81 37 -212 40 -335 7z"/>
<path d="M5550 4912 l0 -652 213 0 c373 0 561 51 696 188 110 111 161 257 161
457 0 312 -130 510 -390 593 -120 39 -228 53 -457 59 l-223 6 0 -651z"/>
<path d="M6130 860 l0 -50 53 0 c40 0 58 5 70 18 39 43 5 82 -71 82 l-52 0 0
-50z"/>
<path d="M7302 808 c-11 -29 -23 -61 -27 -70 -6 -16 0 -18 55 -18 46 0 61 3
57 13 -33 84 -53 127 -58 127 -3 0 -15 -24 -27 -52z"/>
</g>
</svg>
